<mxfile host="app.diagrams.net" agent="Mozilla/5.0 (Windows NT 10.0; Win64; x64) AppleWebKit/537.36 (KHTML, like Gecko) Chrome/136.0.0.0 Safari/537.36 Edg/136.0.0.0" version="27.0.3">
  <diagram name="Trang-1" id="r5VF2pQM59_x0DJw0jBS">
    <mxGraphModel dx="1227" dy="606" grid="1" gridSize="10" guides="1" tooltips="1" connect="1" arrows="1" fold="1" page="1" pageScale="1" pageWidth="827" pageHeight="1169" math="0" shadow="0">
      <root>
        <mxCell id="0" />
        <mxCell id="1" parent="0" />
        <mxCell id="nW4WPklaFHgn0i59weAh-7" style="edgeStyle=orthogonalEdgeStyle;rounded=0;orthogonalLoop=1;jettySize=auto;html=1;entryX=0;entryY=0.5;entryDx=0;entryDy=0;" edge="1" parent="1" source="nW4WPklaFHgn0i59weAh-1" target="nW4WPklaFHgn0i59weAh-5">
          <mxGeometry relative="1" as="geometry">
            <Array as="points">
              <mxPoint x="190" y="160" />
              <mxPoint x="190" y="160" />
            </Array>
          </mxGeometry>
        </mxCell>
        <mxCell id="nW4WPklaFHgn0i59weAh-1" value="Customers&lt;div&gt;&lt;br&gt;&lt;/div&gt;" style="shape=umlActor;verticalLabelPosition=bottom;verticalAlign=top;html=1;outlineConnect=0;" vertex="1" parent="1">
          <mxGeometry x="80" y="90" width="60" height="110" as="geometry" />
        </mxCell>
        <mxCell id="nW4WPklaFHgn0i59weAh-10" style="edgeStyle=orthogonalEdgeStyle;rounded=0;orthogonalLoop=1;jettySize=auto;html=1;entryX=0.5;entryY=0;entryDx=0;entryDy=0;" edge="1" parent="1" source="nW4WPklaFHgn0i59weAh-5" target="nW4WPklaFHgn0i59weAh-6">
          <mxGeometry relative="1" as="geometry" />
        </mxCell>
        <mxCell id="nW4WPklaFHgn0i59weAh-18" style="edgeStyle=orthogonalEdgeStyle;rounded=0;orthogonalLoop=1;jettySize=auto;html=1;exitX=0.5;exitY=1;exitDx=0;exitDy=0;" edge="1" parent="1" source="nW4WPklaFHgn0i59weAh-5" target="nW4WPklaFHgn0i59weAh-1">
          <mxGeometry relative="1" as="geometry">
            <Array as="points">
              <mxPoint x="420" y="320" />
              <mxPoint x="110" y="320" />
            </Array>
          </mxGeometry>
        </mxCell>
        <mxCell id="nW4WPklaFHgn0i59weAh-5" value="System" style="ellipse;whiteSpace=wrap;html=1;" vertex="1" parent="1">
          <mxGeometry x="360" y="120" width="120" height="80" as="geometry" />
        </mxCell>
        <mxCell id="nW4WPklaFHgn0i59weAh-15" style="rounded=0;orthogonalLoop=1;jettySize=auto;html=1;" edge="1" parent="1" source="nW4WPklaFHgn0i59weAh-6" target="nW4WPklaFHgn0i59weAh-5">
          <mxGeometry relative="1" as="geometry" />
        </mxCell>
        <mxCell id="nW4WPklaFHgn0i59weAh-6" value="Database" style="shape=cylinder;whiteSpace=wrap;html=1;" vertex="1" parent="1">
          <mxGeometry x="540" y="340" width="120" height="80" as="geometry" />
        </mxCell>
        <mxCell id="nW4WPklaFHgn0i59weAh-8" value="1" style="text;html=1;align=center;verticalAlign=middle;resizable=0;points=[];autosize=1;strokeColor=none;fillColor=none;" vertex="1" parent="1">
          <mxGeometry x="140" y="130" width="30" height="30" as="geometry" />
        </mxCell>
        <mxCell id="nW4WPklaFHgn0i59weAh-9" value="Lệnh tra cứu(theo mã KH, tên)" style="text;html=1;align=center;verticalAlign=middle;resizable=0;points=[];autosize=1;strokeColor=none;fillColor=none;" vertex="1" parent="1">
          <mxGeometry x="150" y="130" width="190" height="30" as="geometry" />
        </mxCell>
        <mxCell id="nW4WPklaFHgn0i59weAh-11" value="" style="endArrow=classic;html=1;rounded=0;entryX=0.526;entryY=0;entryDx=0;entryDy=0;entryPerimeter=0;" edge="1" parent="1" target="nW4WPklaFHgn0i59weAh-9">
          <mxGeometry width="50" height="50" relative="1" as="geometry">
            <mxPoint x="180" y="130" as="sourcePoint" />
            <mxPoint x="230" y="80" as="targetPoint" />
          </mxGeometry>
        </mxCell>
        <mxCell id="nW4WPklaFHgn0i59weAh-12" value="Truy vấn" style="text;html=1;align=center;verticalAlign=middle;resizable=0;points=[];autosize=1;strokeColor=none;fillColor=none;" vertex="1" parent="1">
          <mxGeometry x="590" y="218" width="70" height="30" as="geometry" />
        </mxCell>
        <mxCell id="nW4WPklaFHgn0i59weAh-13" value="" style="endArrow=classic;html=1;rounded=0;" edge="1" parent="1">
          <mxGeometry width="50" height="50" relative="1" as="geometry">
            <mxPoint x="510" y="150" as="sourcePoint" />
            <mxPoint x="550" y="150" as="targetPoint" />
          </mxGeometry>
        </mxCell>
        <mxCell id="nW4WPklaFHgn0i59weAh-14" value="" style="endArrow=classic;html=1;rounded=0;" edge="1" parent="1">
          <mxGeometry width="50" height="50" relative="1" as="geometry">
            <mxPoint x="590" y="240" as="sourcePoint" />
            <mxPoint x="590" y="280" as="targetPoint" />
          </mxGeometry>
        </mxCell>
        <mxCell id="nW4WPklaFHgn0i59weAh-16" value="" style="endArrow=classic;html=1;rounded=0;" edge="1" parent="1">
          <mxGeometry width="50" height="50" relative="1" as="geometry">
            <mxPoint x="570" y="310" as="sourcePoint" />
            <mxPoint x="540" y="270" as="targetPoint" />
          </mxGeometry>
        </mxCell>
        <mxCell id="nW4WPklaFHgn0i59weAh-17" value="Trả kết quả" style="text;html=1;align=center;verticalAlign=middle;resizable=0;points=[];autosize=1;strokeColor=none;fillColor=none;" vertex="1" parent="1">
          <mxGeometry x="490" y="230" width="80" height="30" as="geometry" />
        </mxCell>
        <mxCell id="nW4WPklaFHgn0i59weAh-19" value="2" style="text;html=1;align=center;verticalAlign=middle;resizable=0;points=[];autosize=1;strokeColor=none;fillColor=none;" vertex="1" parent="1">
          <mxGeometry x="475" y="138" width="30" height="30" as="geometry" />
        </mxCell>
        <mxCell id="nW4WPklaFHgn0i59weAh-20" value="3" style="text;html=1;align=center;verticalAlign=middle;resizable=0;points=[];autosize=1;strokeColor=none;fillColor=none;" vertex="1" parent="1">
          <mxGeometry x="545" y="298" width="30" height="30" as="geometry" />
        </mxCell>
        <mxCell id="nW4WPklaFHgn0i59weAh-21" value="4" style="text;html=1;align=center;verticalAlign=middle;resizable=0;points=[];autosize=1;strokeColor=none;fillColor=none;" vertex="1" parent="1">
          <mxGeometry x="384" y="200" width="30" height="30" as="geometry" />
        </mxCell>
        <mxCell id="nW4WPklaFHgn0i59weAh-22" value="Thông báo&amp;nbsp;" style="text;html=1;align=center;verticalAlign=middle;resizable=0;points=[];autosize=1;strokeColor=none;fillColor=none;" vertex="1" parent="1">
          <mxGeometry x="200" y="290" width="80" height="30" as="geometry" />
        </mxCell>
        <mxCell id="nW4WPklaFHgn0i59weAh-23" value="" style="endArrow=classic;html=1;rounded=0;" edge="1" parent="1">
          <mxGeometry width="50" height="50" relative="1" as="geometry">
            <mxPoint x="430" y="210" as="sourcePoint" />
            <mxPoint x="430" y="250" as="targetPoint" />
          </mxGeometry>
        </mxCell>
        <mxCell id="nW4WPklaFHgn0i59weAh-24" value="" style="endArrow=classic;html=1;rounded=0;" edge="1" parent="1">
          <mxGeometry width="50" height="50" relative="1" as="geometry">
            <mxPoint x="320" y="304.5" as="sourcePoint" />
            <mxPoint x="280" y="304.5" as="targetPoint" />
          </mxGeometry>
        </mxCell>
      </root>
    </mxGraphModel>
  </diagram>
</mxfile>
